<svg width="120" height="30" viewBox="0 0 120 30" fill="none" xmlns="http://www.w3.org/2000/svg">
<g clip-path="url(#clip0_7952_2063)">
<path d="M118.257 23.5128C118.58 23.432 118.742 23.2704 118.742 22.9472C118.742 22.5432 118.499 22.3816 118.014 22.3816H117.206V24.4016H117.53V23.5128H117.853L118.418 24.4016H118.742L118.257 23.5128ZM117.934 23.2704H117.61V22.624H118.014C118.257 22.624 118.499 22.624 118.499 22.9472C118.499 23.2704 118.257 23.2704 117.934 23.2704Z" fill="#94A3B8"/>
<path d="M118.014 21.4928C116.964 21.4928 116.075 22.3008 116.075 23.432C116.075 24.4824 116.883 25.3712 118.014 25.3712C119.065 25.3712 119.954 24.5632 119.954 23.432C119.873 22.3008 119.065 21.4928 118.014 21.4928ZM118.014 25.048C117.126 25.048 116.398 24.3208 116.398 23.3512C116.398 22.3816 117.126 21.6544 118.014 21.6544C118.903 21.6544 119.63 22.3816 119.63 23.3512C119.63 24.3208 118.903 25.048 118.014 25.048ZM0.0463867 4.28243H4.57119V20.6848H12.8128V24.8056H0.0463867V4.28243ZM14.8328 10.908H19.1152V24.8056H14.8328V10.908ZM17.0144 3.95923C18.388 3.95923 19.5192 5.09043 19.5192 6.46403C19.5192 7.83763 18.388 8.96883 17.0144 8.96883C15.6408 8.96883 14.5096 7.83763 14.5096 6.46403C14.5096 5.09043 15.56 3.95923 17.0144 3.95923ZM37.1336 4.28243H41.4968V16.564L46.3448 10.908H51.6776L46.0216 17.2912L51.516 24.8056H46.1024L41.4968 17.9376V24.8056H37.1336V4.28243ZM21.5392 10.908H25.66V12.7664H25.7408C26.3064 11.6352 27.7608 10.504 29.8616 10.504C34.2248 10.504 35.0328 13.4128 35.0328 17.1296V24.7248H30.7504V17.9376C30.7504 16.3216 30.7504 14.2208 28.488 14.2208C26.2256 14.2208 25.9024 15.9984 25.9024 17.776V24.644H21.62V10.908H21.5392Z" fill="#94A3B8"/>
<path d="M60.7272 16.2409C60.7272 14.7865 59.596 13.5745 58.0608 13.5745C56.2024 13.5745 55.152 14.8673 54.9904 16.2409H60.7272ZM64.3632 22.3817C62.9896 24.1593 60.7272 25.1289 58.4648 25.1289C54.1824 25.1289 50.708 22.2201 50.708 17.7761C50.708 13.3321 54.1824 10.4233 58.4648 10.4233C62.5048 10.4233 65.0096 13.3321 65.0096 17.7761V19.1497H54.9904C55.3136 20.7657 56.6064 21.8161 58.2224 21.8161C59.596 21.8161 60.5656 21.0889 61.2928 20.1193L64.3632 22.3817ZM73.9784 14.2209C71.7968 14.2209 70.504 15.6753 70.504 17.7761C70.504 19.8769 71.7968 21.3313 73.9784 21.3313C76.16 21.3313 77.4528 19.8769 77.4528 17.7761C77.4528 15.6753 76.16 14.2209 73.9784 14.2209ZM81.412 24.8057H77.4528V22.9473H77.372C76.7256 23.9169 75.0288 25.1289 73.0896 25.1289C68.9688 25.1289 66.2216 22.1393 66.2216 17.9377C66.2216 14.0593 68.6456 10.5041 72.6048 10.5041C74.3824 10.5041 76.0792 10.9889 77.0488 12.3625H77.1296V4.28247H81.412V24.8057Z" fill="#94A3B8"/>
<path d="M112.682 0H87.876C86.664 0 85.6944 0.9696 85.6944 2.1008V26.9872C85.6944 28.1184 86.664 29.088 87.876 29.088H112.682C113.894 29.088 114.863 28.1184 114.863 26.9872V2.1008C114.863 0.9696 113.894 0 112.682 0Z" fill="#94A3B8"/>
<path d="M90.0576 10.908H94.34V24.8056H90.0576V10.908ZM92.2392 4.04004C93.6128 4.04004 94.744 5.17124 94.744 6.54484C94.744 7.91844 93.6128 9.04964 92.2392 9.04964C90.8656 9.04964 89.7344 7.91844 89.7344 6.54484C89.7344 5.09044 90.8656 4.04004 92.2392 4.04004ZM97.0872 10.908H101.208V12.7664H101.289C101.854 11.6352 103.309 10.504 105.41 10.504C109.773 10.504 110.581 13.4128 110.581 17.1296V24.7248H106.298V17.9376C106.298 16.3216 106.298 14.2208 104.036 14.2208C101.774 14.2208 101.45 15.9984 101.45 17.776V24.644H97.168V10.908H97.0872Z" fill="white"/>
</g>
<defs>
<clipPath id="clip0_7952_2063">
<rect width="120" height="29.088" fill="white"/>
</clipPath>
</defs>
</svg>
