<svg width="120" height="26" viewBox="0 0 120 26" fill="none" xmlns="http://www.w3.org/2000/svg">
<g clip-path="url(#clip0_7952_2090)">
<path d="M120 11.5961V9.48571H117.379V6.20487L117.291 6.23203L114.83 6.98518L114.781 6.99992V9.48583H110.896V8.10096C110.896 7.45612 111.04 6.96266 111.324 6.63356C111.606 6.30841 112.01 6.14311 112.525 6.14311C112.895 6.14311 113.278 6.23029 113.664 6.40221L113.76 6.44539V4.22287L113.715 4.20616C113.355 4.07684 112.866 4.01172 112.259 4.01172C111.495 4.01172 110.8 4.17807 110.195 4.50774C109.589 4.83788 109.112 5.30917 108.778 5.90839C108.445 6.50692 108.276 7.19819 108.276 7.96317V9.48571H106.451V11.5961H108.276V20.4868H110.896V11.5961H114.781V17.246C114.781 19.5728 115.879 20.752 118.043 20.752C118.399 20.752 118.773 20.7103 119.156 20.6287C119.545 20.5449 119.81 20.4612 119.966 20.3718L120 20.3514V18.2215L119.894 18.292C119.751 18.3867 119.574 18.4641 119.367 18.5217C119.158 18.5803 118.984 18.6097 118.849 18.6097C118.342 18.6097 117.967 18.4731 117.734 18.2034C117.499 17.9313 117.379 17.4555 117.379 16.7899V11.5961H120ZM100.601 18.61C99.6505 18.61 98.9008 18.2948 98.3725 17.6737C97.841 17.0495 97.5717 16.1597 97.5717 15.029C97.5717 13.8625 97.841 12.9495 98.3728 12.3143C98.9014 11.6833 99.6439 11.363 100.58 11.363C101.488 11.363 102.211 11.6689 102.729 12.2726C103.25 12.8795 103.514 13.7852 103.514 14.9653C103.514 16.1599 103.266 17.0775 102.776 17.6914C102.289 18.3006 101.558 18.61 100.601 18.61ZM100.718 9.2207C98.9037 9.2207 97.4629 9.75224 96.4356 10.8006C95.409 11.849 94.8884 13.3 94.8884 15.1134C94.8884 16.8358 95.3965 18.2213 96.3988 19.2306C97.4011 20.2403 98.765 20.7518 100.453 20.7518C102.211 20.7518 103.623 20.2128 104.65 19.1499C105.677 18.0883 106.197 16.651 106.197 14.88C106.197 13.1306 105.709 11.7348 104.746 10.7322C103.782 9.72914 102.427 9.2207 100.718 9.2207ZM90.6648 9.2207C89.4308 9.2207 88.4101 9.53633 87.6304 10.1586C86.8459 10.7847 86.448 11.6057 86.448 12.5993C86.448 13.1157 86.5339 13.5745 86.7029 13.9636C86.8729 14.354 87.1361 14.6977 87.4857 14.9862C87.8327 15.2723 88.3683 15.572 89.078 15.877C89.6747 16.1225 90.1197 16.3302 90.4023 16.4939C90.6786 16.6543 90.8746 16.8155 90.9854 16.9726C91.093 17.1263 91.1476 17.3366 91.1476 17.5962C91.1476 18.3353 90.5941 18.6949 89.4552 18.6949C89.0328 18.6949 88.5509 18.6067 88.0231 18.4328C87.499 18.2615 87.0044 18.0107 86.5565 17.6892L86.4477 17.6112V20.1333L86.4877 20.1519C86.8583 20.323 87.3257 20.4672 87.8765 20.5808C88.4262 20.6944 88.9257 20.7522 89.3597 20.7522C90.6987 20.7522 91.777 20.4351 92.5638 19.8091C93.3556 19.1787 93.7569 18.3383 93.7569 17.3104C93.7569 16.5688 93.5408 15.9329 93.115 15.4201C92.6922 14.9114 91.9582 14.4444 90.9344 14.0316C90.1188 13.7043 89.5963 13.4325 89.3808 13.2239C89.173 13.0224 89.0675 12.7374 89.0675 12.3765C89.0675 12.0566 89.1977 11.8003 89.4651 11.5927C89.7345 11.3841 90.1096 11.278 90.5799 11.278C91.0164 11.278 91.463 11.347 91.9071 11.4821C92.3509 11.6172 92.7407 11.7982 93.0661 12.0196L93.1731 12.0927V9.70023L93.132 9.68259C92.8318 9.55385 92.436 9.44369 91.9551 9.35431C91.4765 9.2655 91.0424 9.2207 90.6648 9.2207ZM79.6187 18.61C78.6681 18.61 77.9182 18.2948 77.39 17.6737C76.8584 17.0495 76.5895 16.1599 76.5895 15.029C76.5895 13.8625 76.8587 12.9495 77.3906 12.3143C77.9188 11.6833 78.6611 11.363 79.5977 11.363C80.5057 11.363 81.2288 11.6689 81.7468 12.2726C82.2675 12.8795 82.5316 13.7852 82.5316 14.9653C82.5316 16.1599 82.283 17.0775 81.7932 17.6914C81.3067 18.3006 80.5755 18.61 79.6187 18.61ZM79.7355 9.2207C77.921 9.2207 76.48 9.75224 75.4533 10.8006C74.4267 11.849 73.9058 13.3 73.9058 15.1134C73.9058 16.8365 74.4142 18.2213 75.4165 19.2306C76.4188 20.2403 77.7826 20.7518 79.4701 20.7518C81.2283 20.7518 82.6408 20.2128 83.6677 19.1499C84.6942 18.0883 85.2146 16.651 85.2146 14.88C85.2146 13.1306 84.7263 11.7348 83.763 10.7322C82.7991 9.72914 81.444 9.2207 79.7355 9.2207ZM69.9293 11.3909V9.48571H67.3416V20.4865H69.9293V14.8592C69.9293 13.9023 70.1462 13.1162 70.5743 12.5224C70.997 11.9358 71.5602 11.6385 72.2479 11.6385C72.481 11.6385 72.7427 11.6769 73.026 11.7529C73.3065 11.8285 73.5096 11.9106 73.6294 11.9969L73.7382 12.0757V9.46691L73.6963 9.44892C73.4553 9.34653 73.1143 9.29487 72.683 9.29487C72.0327 9.29487 71.4508 9.50382 70.9523 9.91522C70.5148 10.2768 70.1986 10.7726 69.9568 11.3909H69.9293ZM62.7074 9.2207C61.5202 9.2207 60.4613 9.47527 59.5607 9.97709C58.6581 10.4801 57.9601 11.1982 57.4852 12.1113C57.0124 13.0222 56.7723 14.0862 56.7723 15.2728C56.7723 16.3122 57.0051 17.266 57.4651 18.1067C57.9254 18.9488 58.5769 19.6075 59.4015 20.0644C60.225 20.5208 61.1768 20.7521 62.2306 20.7521C63.4603 20.7521 64.5103 20.5063 65.3521 20.0214L65.3861 20.0019V17.6311L65.2774 17.7105C64.896 17.9883 64.4699 18.21 64.0114 18.3698C63.554 18.5294 63.137 18.61 62.7714 18.61C61.756 18.61 60.9409 18.2923 60.3492 17.6659C59.7563 17.0387 59.4556 16.158 59.4556 15.0498C59.4556 13.9346 59.7691 13.0312 60.387 12.3647C61.0031 11.7001 61.8197 11.363 62.8141 11.363C63.6646 11.363 64.4935 11.651 65.2776 12.2198L65.3861 12.2986V9.80065L65.3511 9.78091C65.056 9.61573 64.6535 9.47933 64.1539 9.3759C63.6564 9.2727 63.1698 9.2207 62.7074 9.2207ZM54.9901 9.48583H52.4024V20.4865H54.9901V9.48583ZM53.7227 4.79946C53.2968 4.79946 52.9254 4.94444 52.6202 5.23175C52.3137 5.51987 52.1583 5.88262 52.1583 6.31074C52.1583 6.73212 52.3119 7.08826 52.6154 7.36871C52.917 7.64836 53.2896 7.79009 53.7229 7.79009C54.156 7.79009 54.53 7.64836 54.8352 7.36918C55.1423 7.08826 55.2981 6.73223 55.2981 6.31074C55.2981 5.8976 55.1465 5.53855 54.8478 5.24336C54.5494 4.94874 54.1707 4.79946 53.7227 4.79946ZM47.2662 8.67418V20.4865H49.9071V5.13621H46.252L41.6061 16.538L37.0976 5.13621H33.2937V20.4864H35.7754V8.67302H35.8606L40.6215 20.4865H42.4944L47.181 8.67418H47.2662Z" fill="#94A3B8"/>
<path d="M12.1734 12.1799H0V0.0065918H12.1734V12.1799Z" fill="#94A3B8"/>
<path d="M25.6142 12.1799H13.441V0.0065918H25.6142V12.1799Z" fill="#94A3B8"/>
<path d="M12.173 25.6254H0V13.4521H12.173V25.6254Z" fill="#94A3B8"/>
<path d="M25.6142 25.6254H13.441V13.4521H25.6142V25.6254Z" fill="#94A3B8"/>
</g>
<defs>
<clipPath id="clip0_7952_2090">
<rect width="120" height="25.632" fill="white"/>
</clipPath>
</defs>
</svg>
