<svg width="120" height="39" viewBox="0 0 120 39" fill="none" xmlns="http://www.w3.org/2000/svg">
<path d="M-0.000610352 30.8214V7.59544L20.5455 0.00219727L31.7117 3.57449V34.8411L20.5455 38.2072L-0.000610352 30.8214L20.5455 33.2938V6.25613L7.14579 9.38279V27.6959L-0.000610352 30.8214ZM53.5941 30.9842C50.3607 30.9842 47.7701 29.9175 45.8242 27.7858C43.8776 25.6553 42.9056 22.8814 42.9056 19.4665C42.9056 15.7977 43.8969 12.8707 45.8797 10.6865C47.8624 8.50238 50.5615 7.41031 53.9752 7.41031C57.1248 7.41031 59.6617 8.47103 61.5865 10.5912C63.5114 12.7127 64.4738 15.4854 64.4738 18.9105C64.4738 22.6324 63.4867 25.5745 61.5148 27.7388C59.5429 29.903 56.9035 30.9842 53.5941 30.9842ZM53.7847 9.82843C51.3883 9.82843 49.4429 10.6932 47.9474 12.4214C46.4519 14.1497 45.7042 16.4194 45.7042 19.2289C45.7042 22.0384 46.4338 24.3003 47.8913 26.0129C49.3488 27.7255 51.2502 28.5818 53.5935 28.5818C56.0954 28.5818 58.0685 27.7653 59.5103 26.1323C60.9522 24.4993 61.674 22.2145 61.674 19.2772C61.674 16.2651 60.9733 13.938 59.5737 12.2942C58.1753 10.6509 56.245 9.82843 53.7847 9.82843ZM73.9786 6.13673C72.5042 6.13673 71.2795 6.63905 70.2942 7.63041C69.3082 8.62118 68.8144 9.97074 68.8144 11.6779V14.3167H66.0368V16.5497H68.8144V30.6043H71.411V16.5497H77.7608V30.6043H80.3574V16.5497H84.1685V14.3167H80.3574V11.8039C80.3574 9.5034 81.2698 8.35706 83.0933 8.35706C83.7403 8.35706 84.3156 8.48972 84.824 8.77555V6.43101C84.3578 6.24045 83.7349 6.13733 82.9401 6.13733C81.4657 6.13733 80.2271 6.64025 79.2412 7.63102C78.2547 8.62238 77.7614 9.97195 77.7614 11.6785V14.3173H71.411V11.8051C71.411 9.504 72.3215 8.35766 74.1463 8.35766C74.7927 8.35766 75.368 8.49032 75.8769 8.77616V6.43161C75.4102 6.23924 74.774 6.13673 73.9786 6.13673ZM87.9615 10.177C87.7408 10.181 87.5215 10.1409 87.3165 10.0588C87.1115 9.97682 86.9251 9.85459 86.7681 9.69938C86.4395 9.38098 86.2748 8.97877 86.2748 8.49093C86.2748 8.00308 86.4395 7.59785 86.7681 7.27463C86.9239 7.11727 87.11 6.99313 87.3151 6.9097C87.5202 6.82626 87.7401 6.78527 87.9615 6.7892C88.4385 6.7892 88.8437 6.95021 89.1784 7.27463C89.5131 7.59785 89.6789 8.00308 89.6789 8.49093C89.6825 8.71365 89.64 8.9347 89.5538 9.14011C89.4677 9.34553 89.3398 9.53083 89.1784 9.6843C88.8443 10.0123 88.4385 10.177 87.9615 10.177ZM89.2339 30.5995H86.6252V14.3119H89.2333L89.2339 30.5995ZM104.054 29.8523C102.803 30.6049 101.317 30.9818 99.6004 30.9818C97.2782 30.9818 95.404 30.2262 93.9784 28.7144C92.5529 27.2027 91.8377 25.2453 91.8377 22.8374C91.8377 20.154 92.6066 17.9994 94.1443 16.3718C95.6826 14.7437 97.734 13.9302 100.3 13.9302C101.731 13.9302 102.994 14.1955 104.086 14.7262V17.3975C102.877 16.5497 101.583 16.1252 100.205 16.1252C98.5397 16.1252 97.1744 16.7222 96.1083 17.9149C95.0428 19.1083 94.5103 20.6744 94.5103 22.6149C94.5103 24.5241 95.0108 26.0298 96.0124 27.1327C97.0152 28.235 98.3582 28.7862 100.045 28.7862C101.466 28.7862 102.803 28.314 104.054 27.3709V29.8523ZM119.999 23.1088H108.5C108.542 24.9214 109.03 26.3211 109.962 27.3076C110.897 28.2929 112.179 28.7862 113.812 28.7862C115.647 28.7862 117.333 28.182 118.87 26.9729V29.4224C117.439 30.4614 115.546 30.9812 113.192 30.9812C110.891 30.9812 109.082 30.2419 107.768 28.7621C106.453 27.2823 105.796 25.2025 105.796 22.519C105.796 19.9845 106.514 17.9192 107.95 16.323C109.387 14.7268 111.172 13.9296 113.303 13.9296C115.434 13.9296 117.083 14.6188 118.249 15.9973C119.416 17.3758 119.998 19.2898 119.998 21.7393V23.1082L119.999 23.1088ZM117.328 20.8975C117.317 19.3917 116.954 18.2201 116.238 17.3825C115.522 16.5443 114.528 16.1258 113.256 16.1258C112.025 16.1258 110.981 16.5666 110.122 17.4464C109.263 18.3268 108.733 19.4774 108.532 20.8975H117.328Z" fill="#94A3B8"/>
</svg>
