<svg width="104" height="104" viewBox="0 0 104 104" fill="none" xmlns="http://www.w3.org/2000/svg">
<g filter="url(#filter0_d_8060_2187)">
<g clip-path="url(#clip0_8060_2187)">
<path d="M75.9531 47.9873C75.9531 61.2421 65.2079 71.9873 51.9531 71.9873C38.6984 71.9873 27.9531 61.2421 27.9531 47.9873C27.9531 47.9929 51.9531 23.99 51.9531 23.9873C65.2079 23.9873 75.9531 34.7326 75.9531 47.9873Z" fill="#0052B4"/>
<path d="M51.8892 47.9881H51.9535C51.9535 47.9663 51.9535 47.9455 51.9535 47.9238C51.9321 47.9453 51.9107 47.9667 51.8892 47.9881Z" fill="#F0F0F0"/>
<path d="M51.9526 36.5106C51.9526 32.2877 51.9526 29.5205 51.9526 23.9889H51.9486C38.6956 23.9911 27.9526 34.7353 27.9526 47.9888H40.4743V40.9377L47.5255 47.9888H51.8885C51.91 47.9674 51.9313 47.9461 51.9527 47.9246C51.9527 46.3077 51.9527 44.865 51.9527 43.5619L44.9015 36.5106H51.9526Z" fill="#F0F0F0"/>
<path d="M40.0956 27.1187C36.342 29.2562 33.2214 32.3767 31.084 36.1304V47.9883H37.3449V33.3797V33.3797H51.9536C51.9536 31.405 51.9536 29.5238 51.9536 27.1187H40.0956V27.1187Z" fill="#D80027"/>
<path d="M51.9538 45.0371L43.4269 36.5103H40.4756C40.4756 36.5102 40.4756 36.5103 40.4756 36.5103L51.9537 47.9884H51.9538C51.9538 47.9884 51.9538 45.9536 51.9538 45.0371Z" fill="#D80027"/>
<path d="M42.4282 52.1602L43.7454 54.9144L46.7198 54.2269L45.3878 56.974L47.7797 58.8708L44.8016 59.5421L44.8099 62.5949L42.4282 60.685L40.0466 62.5949L40.0549 59.5421L37.0767 58.8708L39.4687 56.974L38.1365 54.2269L41.1111 54.9144L42.4282 52.1602Z" fill="#F0F0F0"/>
<path d="M63.8871 57.378L64.5457 58.7551L66.033 58.4113L65.3669 59.7849L66.5629 60.7333L65.0738 61.069L65.078 62.5954L63.8871 61.6404L62.6963 62.5954L62.7005 61.069L61.2114 60.7333L62.4074 59.7849L61.7414 58.4113L63.2285 58.7551L63.8871 57.378Z" fill="#F0F0F0"/>
<path d="M57.7598 42.7701L58.4183 44.1473L59.9055 43.8035L59.2395 45.177L60.4355 46.1255L58.9465 46.4611L58.9505 47.9875L57.7598 47.0325L56.569 47.9875L56.573 46.4611L55.084 46.1255L56.28 45.177L55.614 43.8035L57.1012 44.1473L57.7598 42.7701Z" fill="#F0F0F0"/>
<path d="M63.8871 34.4225L64.5457 35.7997L66.033 35.456L65.367 36.8295L66.5629 37.7779L65.0738 38.1136L65.078 39.64L63.8871 38.685L62.6963 39.64L62.7005 38.1136L61.2114 37.7779L62.4073 36.8295L61.7414 35.456L63.2285 35.7997L63.8871 34.4225Z" fill="#F0F0F0"/>
<path d="M69.2378 40.6829L69.8963 42.06L71.3836 41.7162L70.7176 43.0897L71.9135 44.0382L70.4244 44.3739L70.4285 45.9002L69.2378 44.9453L68.047 45.9002L68.051 44.3739L66.562 44.0382L67.758 43.0897L67.092 41.7162L68.5791 42.06L69.2378 40.6829Z" fill="#F0F0F0"/>
<path d="M65.4117 47.988L65.9297 49.5823H67.6061L66.2498 50.5677L66.768 52.1619L65.4117 51.1766L64.0555 52.1619L64.5735 50.5677L63.2173 49.5823H64.8936L65.4117 47.988Z" fill="#F0F0F0"/>
</g>
<rect x="24.2124" y="20.2466" width="55.4814" height="55.4814" rx="27.7407" stroke="white" stroke-width="7.48139" shape-rendering="crispEdges"/>
</g>
<defs>
<filter id="filter0_d_8060_2187" x="0.471682" y="0.505922" width="102.963" height="102.963" filterUnits="userSpaceOnUse" color-interpolation-filters="sRGB">
<feFlood flood-opacity="0" result="BackgroundImageFix"/>
<feColorMatrix in="SourceAlpha" type="matrix" values="0 0 0 0 0 0 0 0 0 0 0 0 0 0 0 0 0 0 127 0" result="hardAlpha"/>
<feOffset dy="4"/>
<feGaussianBlur stdDeviation="10"/>
<feComposite in2="hardAlpha" operator="out"/>
<feColorMatrix type="matrix" values="0 0 0 0 0.7375 0 0 0 0 0.7375 0 0 0 0 0.7375 0 0 0 0.5 0"/>
<feBlend mode="normal" in2="BackgroundImageFix" result="effect1_dropShadow_8060_2187"/>
<feBlend mode="normal" in="SourceGraphic" in2="effect1_dropShadow_8060_2187" result="shape"/>
</filter>
<clipPath id="clip0_8060_2187">
<rect x="27.9531" y="23.9873" width="48" height="48" rx="24" fill="white"/>
</clipPath>
</defs>
</svg>
