<svg width="80" height="80" viewBox="0 0 80 80" fill="none" xmlns="http://www.w3.org/2000/svg">
<rect width="80" height="80" rx="40" fill="#E1F6FF"/>
<path opacity="0.2" d="M56.5 37.2007V47.1794C56.5008 47.546 56.3675 47.9002 56.125 48.1751C54.0063 50.5357 48.8313 55.0001 40 55.0001C31.1688 55.0001 25.9975 50.5357 23.875 48.1751C23.6326 47.9002 23.4992 47.546 23.5 47.1794V37.2007L40 46.0001L56.5 37.2007Z" fill="#51A0C2"/>
<path d="M63.205 32.6765L40.705 20.6765C40.488 20.5609 40.2459 20.5005 40 20.5005C39.7541 20.5005 39.512 20.5609 39.295 20.6765L16.795 32.6765C16.555 32.8044 16.3543 32.9951 16.2144 33.2283C16.0744 33.4615 16.0005 33.7283 16.0005 34.0002C16.0005 34.2722 16.0744 34.539 16.2144 34.7722C16.3543 35.0054 16.555 35.1961 16.795 35.324L22 38.1009V47.1796C21.9985 47.9164 22.2696 48.6277 22.7613 49.1765C25.2175 51.9121 30.7206 56.5002 40 56.5002C43.0768 56.5257 46.1306 55.9684 49 54.8577V61.0002C49 61.3981 49.1581 61.7796 49.4394 62.0609C49.7207 62.3422 50.1022 62.5002 50.5 62.5002C50.8978 62.5002 51.2794 62.3422 51.5607 62.0609C51.842 61.7796 52 61.3981 52 61.0002V53.4084C53.956 52.2792 55.7236 50.8514 57.2388 49.1765C57.7304 48.6277 58.0016 47.9164 58 47.1796V38.1009L63.205 35.324C63.445 35.1961 63.6457 35.0054 63.7857 34.7722C63.9256 34.539 63.9995 34.2722 63.9995 34.0002C63.9995 33.7283 63.9256 33.4615 63.7857 33.2283C63.6457 32.9951 63.445 32.8044 63.205 32.6765ZM40 53.5002C31.8869 53.5002 27.115 49.5365 25 47.1796V39.7002L39.295 47.324C39.512 47.4395 39.7541 47.5 40 47.5C40.2459 47.5 40.488 47.4395 40.705 47.324L49 42.9009V51.5896C46.6375 52.6921 43.66 53.5002 40 53.5002ZM55 47.1721C54.1009 48.1699 53.0948 49.0659 52 49.844V41.2996L55 39.7002V47.1721ZM51.25 38.3015L51.2088 38.2771L40.7088 32.6765C40.3584 32.4976 39.9519 32.4634 39.5766 32.5814C39.2013 32.6993 38.8874 32.96 38.7025 33.3072C38.5176 33.6544 38.4765 34.0604 38.588 34.4376C38.6995 34.8148 38.9548 35.1332 39.2988 35.324L48.0625 40.0002L40 44.2996L20.6875 34.0002L40 23.7009L59.3125 34.0002L51.25 38.3015Z" fill="#51A0C2"/>
</svg>
