<svg width="80" height="80" viewBox="0 0 80 80" fill="none" xmlns="http://www.w3.org/2000/svg">
<rect width="80" height="80" rx="40" fill="#FFEEDA"/>
<path opacity="0.2" d="M55 22V52H29.5C28.3065 52 27.1619 52.4741 26.318 53.318C25.4741 54.1619 25 55.3065 25 56.5V26.5C25 25.3065 25.4741 24.1619 26.318 23.318C27.1619 22.4741 28.3065 22 29.5 22H37V40L43 35.5L49 40V22H55Z" fill="#C28135"/>
<path d="M55 20.5H29.5C27.9087 20.5 26.3826 21.1321 25.2574 22.2574C24.1321 23.3826 23.5 24.9087 23.5 26.5V58C23.5 58.3978 23.658 58.7794 23.9393 59.0607C24.2206 59.342 24.6022 59.5 25 59.5H52C52.3978 59.5 52.7794 59.342 53.0607 59.0607C53.342 58.7794 53.5 58.3978 53.5 58C53.5 57.6022 53.342 57.2206 53.0607 56.9393C52.7794 56.658 52.3978 56.5 52 56.5H26.5C26.5 55.7043 26.8161 54.9413 27.3787 54.3787C27.9413 53.8161 28.7044 53.5 29.5 53.5H55C55.3978 53.5 55.7794 53.342 56.0607 53.0607C56.342 52.7794 56.5 52.3978 56.5 52V22C56.5 21.6022 56.342 21.2206 56.0607 20.9393C55.7794 20.658 55.3978 20.5 55 20.5ZM38.5 23.5H47.5V37L43.8981 34.3C43.6385 34.1053 43.3227 34 42.9981 34C42.6736 34 42.3578 34.1053 42.0981 34.3L38.5 37V23.5ZM53.5 50.5H29.5C28.4465 50.4986 27.4114 50.7761 26.5 51.3044V26.5C26.5 25.7044 26.8161 24.9413 27.3787 24.3787C27.9413 23.8161 28.7044 23.5 29.5 23.5H35.5V40C35.5 40.2786 35.5776 40.5516 35.724 40.7886C35.8705 41.0256 36.08 41.2171 36.3292 41.3416C36.5783 41.4662 36.8573 41.519 37.1347 41.4939C37.4122 41.4689 37.6771 41.3671 37.9 41.2L43 37.375L48.1019 41.2C48.361 41.3943 48.6761 41.4996 49 41.5C49.2329 41.4997 49.4625 41.4458 49.6712 41.3425C49.9205 41.2178 50.13 41.0261 50.2764 40.789C50.4228 40.5519 50.5002 40.2787 50.5 40V23.5H53.5V50.5Z" fill="#C28135"/>
</svg>
