<svg width="24" height="25" viewBox="0 0 24 25" fill="none" xmlns="http://www.w3.org/2000/svg">
<path opacity="0.2" d="M16.5 12.3037C16.5 13.1937 16.2361 14.0638 15.7416 14.8038C15.2471 15.5438 14.5443 16.1206 13.7221 16.4612C12.8998 16.8018 11.995 16.8909 11.1221 16.7172C10.2492 16.5436 9.44736 16.115 8.81802 15.4857C8.18869 14.8564 7.7601 14.0545 7.58647 13.1816C7.41283 12.3087 7.50195 11.4039 7.84254 10.5816C8.18314 9.75937 8.75991 9.05656 9.49994 8.5621C10.24 8.06763 11.11 7.80371 12 7.80371C13.1935 7.80371 14.3381 8.27782 15.182 9.12173C16.0259 9.96564 16.5 11.1102 16.5 12.3037Z" fill="#754FFE"/>
<path d="M20.8004 8.09997C21.8412 10.2767 22.0387 12.7617 21.355 15.0755C20.6713 17.3893 19.1547 19.3678 17.098 20.6292C15.0413 21.8906 12.5902 22.3454 10.2179 21.9059C7.84557 21.4664 5.72013 20.1637 4.25179 18.2492C2.78344 16.3348 2.0763 13.9443 2.26682 11.5391C2.45735 9.13396 3.53204 6.88461 5.28348 5.22522C7.03492 3.56583 9.33895 2.61402 11.7509 2.55349C14.1628 2.49296 16.5117 3.32801 18.3442 4.89747L20.4695 2.77122C20.6102 2.63049 20.8011 2.55143 21.0001 2.55143C21.1991 2.55143 21.39 2.63049 21.5307 2.77122C21.6715 2.91195 21.7505 3.10282 21.7505 3.30184C21.7505 3.50087 21.6715 3.69174 21.5307 3.83247L12.5307 12.8325C12.39 12.9732 12.1991 13.0523 12.0001 13.0523C11.8011 13.0523 11.6102 12.9732 11.4695 12.8325C11.3288 12.6917 11.2497 12.5009 11.2497 12.3018C11.2497 12.1028 11.3288 11.9119 11.4695 11.7712L14.0682 9.17247C13.3639 8.70668 12.5231 8.49221 11.6817 8.56379C10.8404 8.63538 10.0478 8.98881 9.43231 9.56689C8.81683 10.145 8.41446 10.9139 8.29034 11.7491C8.16622 12.5843 8.32762 13.437 8.7484 14.169C9.16919 14.9011 9.82473 15.4697 10.6089 15.7829C11.3931 16.096 12.26 16.1354 13.0693 15.8945C13.8786 15.6536 14.5829 15.1467 15.0683 14.4557C15.5536 13.7647 15.7915 12.9302 15.7435 12.0872C15.738 11.9887 15.7519 11.89 15.7845 11.7969C15.8171 11.7038 15.8677 11.618 15.9334 11.5445C15.9991 11.4709 16.0787 11.411 16.1676 11.3682C16.2564 11.3254 16.3529 11.3005 16.4514 11.295C16.6503 11.2838 16.8455 11.3521 16.994 11.4848C17.0676 11.5505 17.1275 11.6301 17.1703 11.719C17.2131 11.8079 17.238 11.9043 17.2435 12.0028C17.3119 13.196 16.9711 14.3769 16.2774 15.3501C15.5838 16.3234 14.5788 17.0309 13.4285 17.3556C12.2783 17.6804 11.0517 17.6029 9.95148 17.1361C8.85123 16.6692 7.94322 15.8409 7.3775 14.7881C6.81178 13.7353 6.62223 12.521 6.84017 11.3458C7.05811 10.1707 7.67049 9.10504 8.57611 8.32509C9.48173 7.54514 10.6264 7.09753 11.8208 7.05626C13.0153 7.01499 14.1881 7.38251 15.1454 8.09809L17.2782 5.96528C15.7152 4.66759 13.7279 3.99312 11.6979 4.07141C9.66793 4.14971 7.73844 4.97524 6.28003 6.38947C4.82163 7.80369 3.93715 9.70688 3.79646 11.7335C3.65578 13.7601 4.26881 15.7673 5.51782 17.3694C6.76683 18.9716 8.56375 20.0558 10.5634 20.4138C12.5631 20.7719 14.6246 20.3785 16.3519 19.3092C18.0792 18.2399 19.3506 16.5701 19.9218 14.6206C20.493 12.6711 20.3238 10.5792 19.4467 8.74684C19.3609 8.56733 19.3499 8.36108 19.4162 8.17349C19.4825 7.98589 19.6206 7.83231 19.8001 7.74653C19.9796 7.66075 20.1859 7.6498 20.3735 7.71608C20.5611 7.78236 20.7146 7.92045 20.8004 8.09997Z" fill="#754FFE"/>
</svg>
