<svg width="24" height="25" viewBox="0 0 24 25" fill="none" xmlns="http://www.w3.org/2000/svg">
<path opacity="0.2" d="M12 5.55371C4.5 5.55371 1.5 12.3037 1.5 12.3037C1.5 12.3037 4.5 19.0537 12 19.0537C19.5 19.0537 22.5 12.3037 22.5 12.3037C22.5 12.3037 19.5 5.55371 12 5.55371ZM12 16.0537C11.2583 16.0537 10.5333 15.8338 9.91661 15.4217C9.29993 15.0097 8.81928 14.424 8.53545 13.7388C8.25162 13.0536 8.17736 12.2996 8.32205 11.5721C8.46675 10.8447 8.8239 10.1765 9.34835 9.65206C9.8728 9.12761 10.541 8.77046 11.2684 8.62577C11.9958 8.48107 12.7498 8.55533 13.4351 8.83916C14.1203 9.12299 14.706 9.60364 15.118 10.2203C15.5301 10.837 15.75 11.562 15.75 12.3037C15.75 13.2983 15.3549 14.2521 14.6517 14.9554C13.9484 15.6586 12.9946 16.0537 12 16.0537Z" fill="#754FFE"/>
<path d="M23.1853 12C23.1525 11.9259 22.3584 10.1643 20.5931 8.39902C18.2409 6.04684 15.27 4.80371 12 4.80371C8.72999 4.80371 5.75905 6.04684 3.40687 8.39902C1.64155 10.1643 0.843741 11.9287 0.814679 12C0.772035 12.0959 0.75 12.1997 0.75 12.3046C0.75 12.4096 0.772035 12.5134 0.814679 12.6093C0.847491 12.6834 1.64155 14.444 3.40687 16.2093C5.75905 18.5606 8.72999 19.8037 12 19.8037C15.27 19.8037 18.2409 18.5606 20.5931 16.2093C22.3584 14.444 23.1525 12.6834 23.1853 12.6093C23.2279 12.5134 23.25 12.4096 23.25 12.3046C23.25 12.1997 23.2279 12.0959 23.1853 12ZM12 18.3037C9.11437 18.3037 6.59343 17.2546 4.50655 15.1865C3.65028 14.335 2.92179 13.364 2.34374 12.3037C2.92164 11.2433 3.65014 10.2723 4.50655 9.4209C6.59343 7.35277 9.11437 6.30371 12 6.30371C14.8856 6.30371 17.4066 7.35277 19.4934 9.4209C20.3514 10.2721 21.0815 11.2431 21.6609 12.3037C20.985 13.5656 18.0403 18.3037 12 18.3037ZM12 7.80371C11.11 7.80371 10.2399 8.06763 9.49993 8.5621C8.7599 9.05656 8.18313 9.75937 7.84253 10.5816C7.50194 11.4039 7.41282 12.3087 7.58646 13.1816C7.76009 14.0545 8.18867 14.8564 8.81801 15.4857C9.44735 16.115 10.2492 16.5436 11.1221 16.7172C11.995 16.8909 12.8998 16.8018 13.7221 16.4612C14.5443 16.1206 15.2471 15.5438 15.7416 14.8038C16.2361 14.0638 16.5 13.1937 16.5 12.3037C16.4988 11.1106 16.0242 9.96675 15.1806 9.1231C14.337 8.27946 13.1931 7.80495 12 7.80371ZM12 15.3037C11.4066 15.3037 10.8266 15.1278 10.3333 14.7981C9.83993 14.4685 9.45542 13.9999 9.22835 13.4518C9.00129 12.9036 8.94188 12.3004 9.05764 11.7184C9.17339 11.1365 9.45911 10.6019 9.87867 10.1824C10.2982 9.76283 10.8328 9.47711 11.4147 9.36135C11.9967 9.2456 12.5999 9.30501 13.148 9.53207C13.6962 9.75913 14.1648 10.1437 14.4944 10.637C14.824 11.1303 15 11.7104 15 12.3037C15 13.0994 14.6839 13.8624 14.1213 14.425C13.5587 14.9876 12.7956 15.3037 12 15.3037Z" fill="#754FFE"/>
</svg>
