<svg width="104" height="104" viewBox="0 0 104 104" fill="none" xmlns="http://www.w3.org/2000/svg">
<g filter="url(#filter0_d_8060_2190)">
<g clip-path="url(#clip0_8060_2190)">
<path d="M52 68C63.0457 68 72 59.0457 72 48C72 36.9543 63.0457 28 52 28C40.9543 28 32 36.9543 32 48C32 59.0457 40.9543 68 52 68Z" fill="#F0F0F0"/>
<path d="M36.1344 35.8217C34.5633 37.8656 33.3787 40.2215 32.689 42.7808H43.0935L36.1344 35.8217Z" fill="#0052B4"/>
<path d="M71.3121 42.7811C70.6223 40.2218 69.4376 37.866 67.8667 35.822L60.9077 42.7811H71.3121Z" fill="#0052B4"/>
<path d="M32.689 53.217C33.3788 55.7763 34.5634 58.1321 36.1344 60.176L43.0933 53.217H32.689Z" fill="#0052B4"/>
<path d="M64.1759 32.133C62.1319 30.5619 59.7761 29.3773 57.2168 28.6875V39.0919L64.1759 32.133Z" fill="#0052B4"/>
<path d="M39.8237 63.8628C41.8677 65.4339 44.2236 66.6185 46.7828 67.3083V56.9039L39.8237 63.8628Z" fill="#0052B4"/>
<path d="M46.7827 28.6875C44.2235 29.3773 41.8676 30.5619 39.8237 32.1329L46.7827 39.0919V28.6875Z" fill="#0052B4"/>
<path d="M57.2168 67.3083C59.776 66.6185 62.1319 65.4338 64.1758 63.8629L57.2168 56.9039V67.3083Z" fill="#0052B4"/>
<path d="M60.9077 53.217L67.8667 60.1761C69.4376 58.1322 70.6223 55.7763 71.3121 53.217H60.9077Z" fill="#0052B4"/>
<path d="M71.8307 45.3913H54.6088H54.6087V28.1693C53.7548 28.0581 52.8841 28 52 28C51.1157 28 50.2452 28.0581 49.3913 28.1693V45.3912V45.3913H32.1693C32.0581 46.2452 32 47.1159 32 48C32 48.8843 32.0581 49.7548 32.1693 50.6087H49.3912H49.3913V67.8307C50.2452 67.9419 51.1157 68 52 68C52.8841 68 53.7548 67.942 54.6087 67.8307V50.6088V50.6087H71.8307C71.9419 49.7548 72 48.8843 72 48C72 47.1159 71.9419 46.2452 71.8307 45.3913Z" fill="#D80027"/>
<path d="M57.2173 53.2188L66.142 62.1434C66.5524 61.7331 66.944 61.3041 67.3176 60.8595L59.6768 53.2187H57.2173V53.2188Z" fill="#D80027"/>
<path d="M46.7827 53.2187H46.7825L37.8579 62.1433C38.2682 62.5538 38.6972 62.9453 39.1419 63.3189L46.7827 55.678V53.2187Z" fill="#D80027"/>
<path d="M46.7824 42.7819V42.7817L37.8578 33.8569C37.4473 34.2673 37.0557 34.6962 36.6821 35.1409L44.323 42.7818H46.7824V42.7819Z" fill="#D80027"/>
<path d="M57.2173 42.7836L66.1421 33.8588C65.7317 33.4483 65.3028 33.0568 64.8581 32.6833L57.2173 40.3241V42.7836V42.7836Z" fill="#D80027"/>
</g>
<rect x="26" y="22" width="52" height="52" rx="26" stroke="white" stroke-width="12" shape-rendering="crispEdges"/>
</g>
<defs>
<filter id="filter0_d_8060_2190" x="1.90735e-06" y="1.90735e-06" width="104" height="104" filterUnits="userSpaceOnUse" color-interpolation-filters="sRGB">
<feFlood flood-opacity="0" result="BackgroundImageFix"/>
<feColorMatrix in="SourceAlpha" type="matrix" values="0 0 0 0 0 0 0 0 0 0 0 0 0 0 0 0 0 0 127 0" result="hardAlpha"/>
<feOffset dy="4"/>
<feGaussianBlur stdDeviation="10"/>
<feComposite in2="hardAlpha" operator="out"/>
<feColorMatrix type="matrix" values="0 0 0 0 0.7375 0 0 0 0 0.7375 0 0 0 0 0.7375 0 0 0 0.5 0"/>
<feBlend mode="normal" in2="BackgroundImageFix" result="effect1_dropShadow_8060_2190"/>
<feBlend mode="normal" in="SourceGraphic" in2="effect1_dropShadow_8060_2190" result="shape"/>
</filter>
<clipPath id="clip0_8060_2190">
<rect x="32" y="28" width="40" height="40" rx="20" fill="white"/>
</clipPath>
</defs>
</svg>
