<svg width="111" height="112" viewBox="0 0 111 112" fill="none" xmlns="http://www.w3.org/2000/svg">
<g filter="url(#filter0_d_8060_2193)">
<g clip-path="url(#clip0_8060_2193)">
<path d="M55.7247 75.0518C68.5793 75.0518 79.0001 64.6311 79.0001 51.7764C79.0001 38.9217 68.5793 28.501 55.7247 28.501C42.87 28.501 32.4492 38.9217 32.4492 51.7764C32.4492 64.6311 42.87 75.0518 55.7247 75.0518Z" fill="#F0F0F0"/>
<path d="M37.7695 36.9637H73.6799C72.3536 35.3576 70.8152 33.9333 69.1087 32.7318H42.3407C40.6342 33.9332 39.096 35.3575 37.7695 36.9637Z" fill="#F0F0F0"/>
<path d="M32.4492 51.7774C32.4492 52.4909 32.4831 53.1963 32.546 53.8934H78.9033C78.9662 53.1963 79.0001 52.4909 79.0001 51.7774C79.0001 51.064 78.9662 50.3586 78.9033 49.6616H32.546C32.4831 50.3586 32.4492 51.064 32.4492 51.7774Z" fill="#F0F0F0"/>
<path d="M34.9878 62.3563H76.4625C77.1478 61.0156 77.7068 59.5999 78.1241 58.1245H33.3262C33.7434 59.5999 34.3026 61.0157 34.9878 62.3563Z" fill="#F0F0F0"/>
<path d="M42.3407 70.8198H69.1086C70.8151 69.6183 72.3535 68.194 73.6798 66.5879H37.7695C39.096 68.1938 40.6342 69.6183 42.3407 70.8198Z" fill="#F0F0F0"/>
<path d="M33.3262 45.4297H78.1243C77.707 43.9543 77.1479 42.5385 76.4626 41.1978H34.9879C34.3026 42.5385 33.7435 43.9543 33.3262 45.4297Z" fill="#F0F0F0"/>
<path d="M43.5796 32.733H69.1073C65.3214 30.0674 60.7054 28.5011 55.7233 28.5011C52.6874 28.5011 47.3655 30.0674 43.5796 32.733Z" fill="#D80027"/>
<path d="M54.7124 41.1963H76.4617C75.6877 39.6822 74.7528 38.264 73.6795 36.9644H54.7124V41.1963Z" fill="#D80027"/>
<path d="M54.7124 49.6593H78.903C78.7721 48.2062 78.509 46.7911 78.1234 45.4274H54.7124V49.6593Z" fill="#D80027"/>
<path d="M33.3246 58.126H78.1226C78.5083 56.7624 78.7714 55.3472 78.9023 53.8942H32.5449C32.6758 55.3472 32.939 56.7623 33.3246 58.126Z" fill="#D80027"/>
<path d="M37.7685 66.589H73.6788C74.7521 65.2893 75.687 63.8712 76.461 62.3572H34.9863C35.7603 63.8713 36.6952 65.2895 37.7685 66.589Z" fill="#D80027"/>
<path d="M55.7234 75.0528C60.7055 75.0528 65.3215 73.4865 69.1074 70.8209H42.3394C46.1253 73.4865 50.7412 75.0528 55.7234 75.0528Z" fill="#D80027"/>
<path d="M33.326 45.4278C32.9403 46.7916 32.6773 48.2065 32.5464 49.6596H55.7251V28.5002C45.0711 28.5002 36.0893 35.6584 33.326 45.4278Z" fill="#0052B4"/>
<path d="M46.3052 34.573L47.8122 39.2113H52.6897L48.7439 42.0781L50.2508 46.7167L46.3052 43.85L42.3594 46.7167L43.8666 42.0781L39.9209 39.2113H44.7981L46.3052 34.573Z" fill="#F0F0F0"/>
</g>
<rect x="26.4492" y="22.501" width="58.5509" height="58.5509" rx="29.2754" stroke="white" stroke-width="12" shape-rendering="crispEdges"/>
</g>
<defs>
<filter id="filter0_d_8060_2193" x="0.449221" y="0.500978" width="110.551" height="110.551" filterUnits="userSpaceOnUse" color-interpolation-filters="sRGB">
<feFlood flood-opacity="0" result="BackgroundImageFix"/>
<feColorMatrix in="SourceAlpha" type="matrix" values="0 0 0 0 0 0 0 0 0 0 0 0 0 0 0 0 0 0 127 0" result="hardAlpha"/>
<feOffset dy="4"/>
<feGaussianBlur stdDeviation="10"/>
<feComposite in2="hardAlpha" operator="out"/>
<feColorMatrix type="matrix" values="0 0 0 0 0.7375 0 0 0 0 0.7375 0 0 0 0 0.7375 0 0 0 0.5 0"/>
<feBlend mode="normal" in2="BackgroundImageFix" result="effect1_dropShadow_8060_2193"/>
<feBlend mode="normal" in="SourceGraphic" in2="effect1_dropShadow_8060_2193" result="shape"/>
</filter>
<clipPath id="clip0_8060_2193">
<rect x="32.4492" y="28.501" width="46.5509" height="46.5509" rx="23.2754" fill="white"/>
</clipPath>
</defs>
</svg>
