<svg width="102" height="103" viewBox="0 0 102 103" fill="none" xmlns="http://www.w3.org/2000/svg">
<g filter="url(#filter0_d_8060_2189)">
<g clip-path="url(#clip0_8060_2189)">
<path d="M51.1543 70.6251C64.009 70.6251 74.4298 60.2043 74.4298 47.3497C74.4298 34.495 64.009 24.0742 51.1543 24.0742C38.2997 24.0742 27.8789 34.495 27.8789 47.3497C27.8789 60.2043 38.2997 70.6251 51.1543 70.6251Z" fill="#F0F0F0"/>
<path d="M50.1416 47.3497H74.429C74.429 45.2489 74.1489 43.2137 73.6271 41.2778H50.1416V47.3497Z" fill="#D80027"/>
<path d="M50.1416 35.2048H71.0128C69.588 32.8798 67.7662 30.8247 65.6421 29.1329H50.1416V35.2048Z" fill="#D80027"/>
<path d="M51.1536 70.6252C56.6315 70.6252 61.6663 68.7319 65.6422 65.5653H36.665C40.641 68.7319 45.6758 70.6252 51.1536 70.6252Z" fill="#D80027"/>
<path d="M31.2946 59.4915H71.013C72.1569 57.625 73.044 55.5848 73.6274 53.4196H28.6802C29.2636 55.5848 30.1507 57.625 31.2946 59.4915Z" fill="#D80027"/>
<path d="M38.6605 27.709H40.7816L38.8086 29.1424L39.5623 31.4616L37.5894 30.0283L35.6165 31.4616L36.2675 29.458C34.5304 30.905 33.0079 32.6003 31.7532 34.4892H32.4328L31.1769 35.4016C30.9813 35.728 30.7936 36.0596 30.6138 36.3961L31.2135 38.2419L30.0946 37.429C29.8165 38.0182 29.5621 38.6207 29.3334 39.2358L29.9942 41.2695H32.4328L30.4598 42.7028L31.2135 45.0221L29.2406 43.5888L28.0588 44.4474C27.9405 45.3982 27.8789 46.3667 27.8789 47.3497H51.1543C51.1543 34.4951 51.1543 32.9796 51.1543 24.0742C46.5564 24.0742 42.2701 25.408 38.6605 27.709ZM39.5623 45.0221L37.5894 43.5888L35.6165 45.0221L36.3702 42.7028L34.3972 41.2695H36.8359L37.5894 38.9502L38.3429 41.2695H40.7816L38.8086 42.7028L39.5623 45.0221ZM38.8086 35.9226L39.5623 38.2419L37.5894 36.8085L35.6165 38.2419L36.3702 35.9226L34.3972 34.4892H36.8359L37.5894 32.17L38.3429 34.4892H40.7816L38.8086 35.9226ZM47.9111 45.0221L45.9382 43.5888L43.9653 45.0221L44.719 42.7028L42.746 41.2695H45.1846L45.9382 38.9502L46.6917 41.2695H49.1304L47.1574 42.7028L47.9111 45.0221ZM47.1574 35.9226L47.9111 38.2419L45.9382 36.8085L43.9653 38.2419L44.719 35.9226L42.746 34.4892H45.1846L45.9382 32.17L46.6917 34.4892H49.1304L47.1574 35.9226ZM47.1574 29.1424L47.9111 31.4616L45.9382 30.0283L43.9653 31.4616L44.719 29.1424L42.746 27.709H45.1846L45.9382 25.3897L46.6917 27.709H49.1304L47.1574 29.1424Z" fill="#0052B4"/>
</g>
<path d="M24.1382 47.3497C24.1382 62.2702 36.2337 74.3658 51.1543 74.3658C66.0749 74.3658 78.1705 62.2702 78.1705 47.3497C78.1705 32.4291 66.0749 20.3335 51.1543 20.3335C36.2337 20.3335 24.1382 32.4291 24.1382 47.3497Z" stroke="white" stroke-width="7.48139" shape-rendering="crispEdges"/>
</g>
<defs>
<filter id="filter0_d_8060_2189" x="0.397463" y="0.592836" width="101.514" height="101.514" filterUnits="userSpaceOnUse" color-interpolation-filters="sRGB">
<feFlood flood-opacity="0" result="BackgroundImageFix"/>
<feColorMatrix in="SourceAlpha" type="matrix" values="0 0 0 0 0 0 0 0 0 0 0 0 0 0 0 0 0 0 127 0" result="hardAlpha"/>
<feOffset dy="4"/>
<feGaussianBlur stdDeviation="10"/>
<feComposite in2="hardAlpha" operator="out"/>
<feColorMatrix type="matrix" values="0 0 0 0 0.7375 0 0 0 0 0.7375 0 0 0 0 0.7375 0 0 0 0.5 0"/>
<feBlend mode="normal" in2="BackgroundImageFix" result="effect1_dropShadow_8060_2189"/>
<feBlend mode="normal" in="SourceGraphic" in2="effect1_dropShadow_8060_2189" result="shape"/>
</filter>
<clipPath id="clip0_8060_2189">
<path d="M27.8789 47.3497C27.8789 34.495 38.2997 24.0742 51.1543 24.0742V24.0742C64.009 24.0742 74.4298 34.495 74.4298 47.3497V47.3497C74.4298 60.2043 64.009 70.6251 51.1543 70.6251V70.6251C38.2997 70.6251 27.8789 60.2043 27.8789 47.3497V47.3497Z" fill="white"/>
</clipPath>
</defs>
</svg>
