<svg width="120" height="24" viewBox="0 0 120 24" fill="none" xmlns="http://www.w3.org/2000/svg">
<g clip-path="url(#clip0_7952_2071)">
<path d="M9.39962 3.66562C7.9925 3.66562 7.57036 4.28475 7.57036 5.66374V7.94329H11.3415L10.9756 11.6581H7.57036V22.887H3.0394V11.6581H0V7.97143H3.0394V5.74817C3.0394 1.97706 4.5591 0.00708008 8.75235 0.00708008C9.62477 0.00708008 10.5253 0.0633653 11.3977 0.175936V3.66562" fill="#94A3B8"/>
<path d="M11.651 14.9509C11.651 10.7858 13.621 7.63379 17.7861 7.63379C20.0375 7.63379 21.4165 8.78764 22.0919 10.2511V7.9715H26.4259V22.9152H22.0638V20.6638C21.4446 22.0991 20.0094 23.2248 17.7579 23.2248C13.621 23.2248 11.6229 20.101 11.6229 15.9077M16.182 15.964C16.182 18.1873 16.9981 19.6788 19.1088 19.6788C20.9662 19.6788 21.8949 18.328 21.8949 16.1891V14.6694C21.8949 12.5306 20.9381 11.1798 19.1088 11.1798C16.9981 11.1798 16.182 12.6432 16.182 14.8946V15.964Z" fill="#94A3B8"/>
<path d="M35.8255 7.63379C37.5704 7.63379 39.2589 7.99964 40.1595 8.64692L39.1463 11.8552C38.2176 11.4049 37.1764 11.1798 36.1351 11.1798C33.6867 11.1798 32.6173 12.5869 32.6173 15.0071V15.8796C32.6173 18.2998 33.6867 19.707 36.1351 19.707C37.1764 19.707 38.2176 19.4537 39.1463 19.0034L40.1595 22.2117C39.2589 22.8308 37.5985 23.2248 35.8255 23.2248C30.5066 23.2248 28.1144 20.3824 28.1144 15.7951V15.0916C28.1144 10.5043 30.5066 7.63379 35.8255 7.63379Z" fill="#94A3B8"/>
<path d="M40.7505 15.9921V14.6694C40.7505 10.4199 43.1707 7.63379 48.0957 7.63379C52.7392 7.63379 54.7936 10.448 54.7936 14.6132V17.0053H45.2814C45.3659 19.0597 46.2946 19.9602 48.7993 19.9602C50.4315 19.9602 52.0638 19.6507 53.6117 19.0597L54.4278 22.1554C53.2458 22.7745 50.7974 23.2529 48.6304 23.2529C42.8893 23.2248 40.7505 20.3824 40.7505 15.9921ZM45.2814 14.0222H50.7411V13.6563C50.7411 12.024 50.0938 10.7295 48.0957 10.7295C46.0694 10.7295 45.2814 12.024 45.2814 14.0222Z" fill="#94A3B8"/>
<path d="M71.5666 15.9078C71.5666 20.0729 69.5685 23.2248 65.4034 23.2248C63.152 23.2248 61.576 22.0991 60.9569 20.6639V22.9153H56.6792V0.457473L61.2102 0.0634766V10.0541C61.8574 8.73139 63.3209 7.66198 65.4315 7.66198C69.5685 7.66198 71.5948 10.7858 71.5948 14.979M67.0357 14.8665C67.0357 12.7558 66.2195 11.1798 64.0526 11.1798C62.1952 11.1798 61.2102 12.5025 61.2102 14.6413V16.2173C61.2102 18.3562 62.2233 19.6789 64.0526 19.6789C66.2195 19.6789 67.0357 18.1029 67.0357 15.9922V14.8665Z" fill="#94A3B8"/>
<path d="M73.0582 15.7951V15.0353C73.0582 10.7295 75.5066 7.63379 80.4878 7.63379C85.469 7.63379 87.9174 10.7295 87.9174 15.0353V15.7951C87.9174 20.101 85.469 23.1966 80.4878 23.1966C75.5066 23.1966 73.0582 20.1291 73.0582 15.7951ZM83.4146 14.7257C83.4146 12.7557 82.5985 11.1798 80.4878 11.1798C78.3771 11.1798 77.561 12.7557 77.561 14.7257V16.1329C77.561 18.1028 78.3771 19.6788 80.4878 19.6788C82.5985 19.6788 83.4146 18.1028 83.4146 16.1329V14.7257Z" fill="#94A3B8"/>
<path d="M89.4653 15.7951V15.0353C89.4653 10.7295 91.9137 7.63379 96.8949 7.63379C101.876 7.63379 104.325 10.7295 104.325 15.0353V15.7951C104.325 20.101 101.876 23.1966 96.8949 23.1966C91.9137 23.1966 89.4653 20.1291 89.4653 15.7951ZM99.8217 14.7257C99.8217 12.7557 99.0056 11.1798 96.8949 11.1798C94.7842 11.1798 93.9681 12.7557 93.9681 14.7257V16.1329C93.9681 18.1028 94.7842 19.6788 96.8949 19.6788C99.0056 19.6788 99.8217 18.1028 99.8217 16.1329V14.7257Z" fill="#94A3B8"/>
<path d="M110.544 15.0914L115.019 7.94322H119.803L115.131 15.3447L120 22.9151H115.188L110.544 15.598V22.9151H106.041V0.457295L110.544 0.0351562" fill="#94A3B8"/>
</g>
<defs>
<clipPath id="clip0_7952_2071">
<rect width="120" height="23.232" fill="white"/>
</clipPath>
</defs>
</svg>
