<svg width="120" height="40" viewBox="0 0 120 40" fill="none" xmlns="http://www.w3.org/2000/svg">
<g clip-path="url(#clip0_7952_2082)">
<path d="M14.7785 0.00341797H15.8456C19.5503 0.0839549 23.1946 1.57389 25.8121 4.21147C24.8456 5.19805 23.859 6.14436 22.9127 7.13094C21.4429 5.80208 19.6711 4.77523 17.7382 4.41281C14.8792 3.80879 11.7986 4.35241 9.40266 5.98328C6.78521 7.69469 5.0134 10.594 4.63085 13.6947C4.20803 16.7551 5.0738 19.9766 7.06709 22.3524C8.97984 24.6678 11.8993 26.1175 14.9194 26.2182C17.7382 26.3793 20.6778 25.5135 22.7315 23.5403C24.3423 22.1511 25.0872 20.037 25.3288 17.9833C21.9866 17.9833 18.6443 18.0034 15.302 17.9833V13.8356H29.3758C30.1006 18.2853 29.0537 23.2987 25.6711 26.4799C23.4161 28.735 20.2953 30.0638 17.1141 30.3256C14.0335 30.6276 10.8523 30.0437 8.11407 28.5538C4.83219 26.8021 2.21474 23.8423 0.92615 20.3591C-0.281904 17.1578 -0.302038 13.5336 0.825479 10.3121C1.85232 7.37255 3.82548 4.77523 6.36239 2.96315C8.79863 1.1712 11.7584 0.184626 14.7785 0.00341797Z" fill="#94A3B8"/>
<path d="M95.5167 1.05054H99.8254V29.8022C98.3959 29.8022 96.9463 29.8223 95.5167 29.7821C95.5369 20.2183 95.5167 10.6344 95.5167 1.05054Z" fill="#94A3B8"/>
<path d="M38.9597 11.017C41.6174 10.5136 44.4966 11.0774 46.6912 12.668C48.6845 14.0774 50.0738 16.2922 50.4966 18.7083C51.0402 21.5069 50.3557 24.5673 48.5436 26.7821C46.5906 29.2586 43.3892 30.5875 40.2684 30.3861C37.4094 30.225 34.6308 28.7955 32.9396 26.4599C31.0268 23.8828 30.5637 20.3391 31.6107 17.319C32.6577 14.0774 35.6174 11.6009 38.9597 11.017ZM39.5637 14.8425C38.4765 15.1244 37.4698 15.7485 36.7449 16.6344C34.7919 18.97 34.9127 22.7754 37.0671 24.9499C38.2953 26.1982 40.1476 26.7821 41.859 26.4398C43.4496 26.1579 44.8389 25.0908 45.604 23.6814C46.9328 21.2854 46.5503 17.9834 44.5167 16.1109C43.208 14.9029 41.2953 14.3995 39.5637 14.8425Z" fill="#94A3B8"/>
<path d="M60.302 11.017C63.3423 10.4331 66.6644 11.2787 68.9396 13.413C72.6443 16.7351 73.047 22.9566 69.8859 26.7821C67.9731 29.1982 64.8725 30.5271 61.8121 30.3861C58.8926 30.3056 56.0134 28.8559 54.2819 26.46C52.3288 23.8224 51.906 20.1982 53.0134 17.1177C54.1208 13.9767 57.0201 11.5808 60.302 11.017ZM60.906 14.8425C59.8188 15.1244 58.8121 15.7485 58.0872 16.6143C56.1543 18.9096 56.2349 22.6546 58.3087 24.8492C59.5369 26.1579 61.4496 26.8022 63.2215 26.4398C64.7919 26.1378 66.2013 25.0908 66.9664 23.6814C68.2751 21.2653 67.8926 17.9633 65.8389 16.0908C64.5302 14.8828 62.6174 14.3996 60.906 14.8425Z" fill="#94A3B8"/>
<path d="M78.4027 12.1847C80.7181 10.735 83.7987 10.3323 86.2953 11.5807C87.0805 11.9229 87.7248 12.5068 88.349 13.0907C88.3691 12.5471 88.349 11.9833 88.3691 11.4196C89.7181 11.4397 91.0671 11.4196 92.4362 11.4397V29.1981C92.4161 31.876 91.7316 34.7149 89.7987 36.6679C87.6846 38.8223 84.443 39.4867 81.5235 39.0437C78.4027 38.5807 75.6846 36.3055 74.4765 33.4263C75.6846 32.8424 76.953 32.3793 78.2013 31.8357C78.906 33.4867 80.3356 34.8961 82.1275 35.2182C83.9195 35.5404 85.9933 35.0974 87.1611 33.6075C88.4094 32.0773 88.4094 29.9833 88.349 28.1109C87.4228 29.0169 86.3557 29.8223 85.0671 30.1243C82.2685 30.9095 79.1879 29.9431 77.0336 28.0505C74.8591 26.1578 73.5705 23.2384 73.6913 20.339C73.7517 17.0572 75.604 13.8961 78.4027 12.1847ZM82.5705 14.7619C81.3423 14.9632 80.1946 15.6478 79.4094 16.5941C77.5168 18.8491 77.5168 22.4531 79.4295 24.6679C80.5168 25.9766 82.2685 26.7015 83.9597 26.5203C85.5503 26.3592 87.0201 25.3525 87.8054 23.9632C89.1342 21.6075 88.9128 18.4062 87.1208 16.3525C86.0134 15.084 84.2416 14.4598 82.5705 14.7619Z" fill="#94A3B8"/>
<path d="M105 13.2114C107.416 10.9564 111.141 10.1913 114.242 11.3792C117.181 12.4866 119.054 15.2852 120 18.1644C115.631 19.9765 111.282 21.7684 106.913 23.5805C107.517 24.7282 108.443 25.7752 109.691 26.198C111.443 26.8221 113.537 26.6007 115.007 25.4329C115.591 24.9899 116.054 24.406 116.497 23.8423C117.604 24.5872 118.711 25.3121 119.819 26.057C118.248 28.4127 115.611 30.0638 112.772 30.3255C109.631 30.708 106.289 29.5 104.255 27.0436C100.913 23.1778 101.235 16.6946 105 13.2114ZM107.154 16.9362C106.47 17.9228 106.188 19.1309 106.208 20.3188C109.128 19.1107 112.047 17.9027 114.966 16.6745C114.483 15.547 113.315 14.8624 112.128 14.6812C110.215 14.3389 108.222 15.3658 107.154 16.9362Z" fill="#94A3B8"/>
</g>
<defs>
<clipPath id="clip0_7952_2082">
<rect width="120" height="39.168" fill="white"/>
</clipPath>
</defs>
</svg>
